<svg width="48" height="48" viewBox="0 0 48 48" fill="none" xmlns="http://www.w3.org/2000/svg">
  <rect width="48" height="48" rx="8" fill="#EBF4E8"/>
  <path d="M24 8C30.6274 8 36 13.3726 36 20C36 26.6274 30.6274 32 24 32C17.3726 32 12 26.6274 12 20C12 13.3726 17.3726 8 24 8Z" fill="#6D7A56"/>
  <path d="M24 12V20" stroke="#EBF4E8" stroke-width="2" stroke-linecap="round"/>
  <path d="M20 16H28" stroke="#EBF4E8" stroke-width="2" stroke-linecap="round"/>
  <path d="M18 24L22 28L30 20" stroke="#EBF4E8" stroke-width="2.5" stroke-linecap="round" stroke-linejoin="round"/>
  <circle cx="24" cy="24" r="2" fill="#EBF4E8"/>
  <path d="M8 8L10 10" stroke="#6D7A56" stroke-width="1.5" stroke-linecap="round"/>
  <path d="M38 38L40 40" stroke="#6D7A56" stroke-width="1.5" stroke-linecap="round"/>
  <path d="M38 8L40 10" stroke="#6D7A56" stroke-width="1.5" stroke-linecap="round"/>
  <path d="M8 38L10 40" stroke="#6D7A56" stroke-width="1.5" stroke-linecap="round"/>
</svg>


