<svg width="48" height="48" viewBox="0 0 48 48" fill="none" xmlns="http://www.w3.org/2000/svg">
  <rect width="48" height="48" rx="8" fill="#EBF4E8"/>
  <path d="M24 12C24 12 16 16 16 24C16 32 20 36 24 40C28 36 32 32 32 24C32 16 24 12 24 12Z" fill="#6D7A56"/>
  <circle cx="20" cy="22" r="2" fill="#6D7A56"/>
  <circle cx="28" cy="22" r="2" fill="#6D7A56"/>
  <path d="M20 28C20 28 22 30 24 30C26 30 28 28 28 28" stroke="#6D7A56" stroke-width="2" stroke-linecap="round"/>
  <path d="M24 8V12" stroke="#6D7A56" stroke-width="2" stroke-linecap="round"/>
  <path d="M24 36V40" stroke="#6D7A56" stroke-width="2" stroke-linecap="round"/>
  <path d="M8 24H12" stroke="#6D7A56" stroke-width="2" stroke-linecap="round"/>
  <path d="M36 24H40" stroke="#6D7A56" stroke-width="2" stroke-linecap="round"/>
</svg>


